<?xml version="1.0" encoding="UTF-8"?>
<svg id="Layer_1" data-name="Layer 1" xmlns="http://www.w3.org/2000/svg" xmlns:xlink="http://www.w3.org/1999/xlink" viewBox="0 0 1001.73 1001">
  <defs>
    <style>
      .cls-1, .cls-2, .cls-3, .cls-4 {
        stroke: #000;
      }

      .cls-1, .cls-2, .cls-3, .cls-5, .cls-6 {
        fill: none;
      }

      .cls-2, .cls-3, .cls-6 {
        stroke-linecap: round;
      }

      .cls-2, .cls-6 {
        stroke-width: 1.27px;
      }

      .cls-7 {
        fill: #b8b8b8;
      }

      .cls-8 {
        fill: #bababa;
      }

      .cls-3 {
        stroke-width: 1.73px;
      }

      .cls-4 {
        fill: #fff;
        stroke-miterlimit: 10;
      }

      .cls-9 {
        fill: #e0e0e0;
      }

      .cls-10 {
        clip-path: url(#clippath-1);
      }

      .cls-6 {
        stroke: #666;
      }

      .cls-11 {
        fill: rgba(255, 255, 255, .5);
      }

      .cls-12 {
        clip-path: url(#clippath);
      }
    </style>
    <clipPath id="clippath">
      <rect class="cls-5" x=".86" y=".5" width="1000" height="882"/>
    </clipPath>
    <clipPath id="clippath-1">
      <rect class="cls-5" x=".86" y=".5" width="1000" height="882"/>
    </clipPath>
  </defs>
  <rect class="cls-4" x=".86" y=".5" width="1000" height="1000"/>
  <g id="fills">
    <g class="cls-12">
      <g>
        <path class="cls-9" d="M741.24,502.8h259.62v-96.16h-259.62v96.16Z"/>
        <path class="cls-9" d="M260.48,502.8H.86v-96.16h259.62v96.16Z"/>
        <path class="cls-7" d="M284.51,406.64v96.16h432.7l-432.7-96.16Z"/>
        <path class="cls-7" d="M717.21,502.8v-96.16h-432.7l432.7,96.16Z"/>
        <path class="cls-7" d="M705.19,425.87v-19.23h-9.62l9.62,19.23Z"/>
        <path class="cls-7" d="M695.57,416.26h-48.08v9.61l48.08-9.61Z"/>
        <path class="cls-7" d="M705.19,425.87l-9.62-19.23v9.62l9.62,9.61Z"/>
        <path class="cls-7" d="M695.57,416.26l-48.08,9.61h57.7l-9.62-9.61Z"/>
        <path class="cls-7" d="M695.57,389.82h9.62v-19.23l-9.62,19.23Z"/>
        <path class="cls-7" d="M705.19,370.59h-57.7v9.61l57.7-9.61Z"/>
        <path class="cls-7" d="M695.57,380.2v9.62l9.62-19.23-9.62,9.61Z"/>
        <path class="cls-7" d="M705.19,370.59l-57.7,9.61h48.08l9.62-9.61Z"/>
        <path class="cls-8" d="M272.49,389.82v16.82h456.74l-456.74-16.82Z"/>
        <path class="cls-8" d="M729.23,406.64v-16.82h-456.74l456.74,16.82Z"/>
        <path class="cls-8" d="M260.48,406.64l480.76,96.16v-96.16h-480.76Z"/>
        <path class="cls-8" d="M260.48,502.8h480.76l-480.76-96.16v96.16Z"/>
        <path class="cls-8" d="M250.86,502.8l500,9.61v-9.61H250.86Z"/>
        <path class="cls-8" d="M250.86,512.41h500l-500-9.61v9.61Z"/>
        <path class="cls-8" d="M250.86,397.03l500,9.61v-9.61H250.86Z"/>
        <path class="cls-8" d="M250.86,406.64h500l-500-9.61v9.61Z"/>
      </g>
    </g>
  </g>
  <g id="edges">
    <g class="cls-10">
      <g>
        <line class="cls-3" x1="741.24" y1="502.8" x2="967.05" y2="502.8"/>
        <line class="cls-3" x1="967.05" y1="502.8" x2="1000.86" y2="502.8"/>
        <line class="cls-3" x1="1000.86" y1="406.64" x2="964.9" y2="406.64"/>
        <line class="cls-3" x1="964.9" y1="406.64" x2="741.24" y2="406.64"/>
        <line class="cls-3" x1="741.24" y1="406.64" x2="741.24" y2="421.92"/>
        <line class="cls-3" x1="741.24" y1="421.92" x2="741.24" y2="502.8"/>
        <line class="cls-3" x1="260.48" y1="502.8" x2="39.25" y2="502.8"/>
        <line class="cls-3" x1="39.25" y1="502.8" x2=".86" y2="502.8"/>
        <line class="cls-3" x1=".86" y1="406.64" x2="39.25" y2="406.64"/>
        <line class="cls-3" x1="39.25" y1="406.64" x2="260.48" y2="406.64"/>
        <line class="cls-3" x1="260.48" y1="406.64" x2="260.48" y2="421.92"/>
        <line class="cls-3" x1="260.48" y1="421.92" x2="260.48" y2="502.8"/>
        <line class="cls-2" x1="284.51" y1="406.64" x2="260.48" y2="406.64"/>
        <line class="cls-2" x1="741.24" y1="406.64" x2="717.21" y2="406.64"/>
        <line class="cls-2" x1="260.48" y1="502.8" x2="284.51" y2="502.8"/>
        <line class="cls-2" x1="717.21" y1="502.8" x2="741.24" y2="502.8"/>
        <line class="cls-2" x1="260.48" y1="502.8" x2="260.48" y2="406.64"/>
        <line class="cls-2" x1="284.51" y1="406.64" x2="284.51" y2="502.8"/>
        <line class="cls-2" x1="717.21" y1="406.64" x2="717.21" y2="502.8"/>
        <line class="cls-2" x1="741.24" y1="406.64" x2="741.24" y2="502.8"/>
        <line class="cls-2" x1="717.21" y1="502.8" x2="284.51" y2="502.8"/>
        <line class="cls-2" x1="284.51" y1="406.64" x2="717.21" y2="406.64"/>
        <line class="cls-2" x1="284.51" y1="502.8" x2="250.86" y2="502.8"/>
        <line class="cls-2" x1="750.86" y1="502.8" x2="717.21" y2="502.8"/>
        <line class="cls-2" x1="250.86" y1="512.41" x2="284.51" y2="512.41"/>
        <line class="cls-2" x1="717.21" y1="512.41" x2="750.86" y2="512.41"/>
        <line class="cls-2" x1="250.86" y1="512.41" x2="250.86" y2="502.8"/>
        <line class="cls-2" x1="284.51" y1="502.8" x2="284.51" y2="512.41"/>
        <line class="cls-2" x1="717.21" y1="502.8" x2="717.21" y2="512.41"/>
        <line class="cls-2" x1="750.86" y1="502.8" x2="750.86" y2="512.41"/>
        <line class="cls-2" x1="272.49" y1="397.03" x2="250.86" y2="397.03"/>
        <line class="cls-2" x1="750.86" y1="397.03" x2="729.23" y2="397.03"/>
        <line class="cls-2" x1="250.86" y1="406.64" x2="272.49" y2="406.64"/>
        <line class="cls-2" x1="729.23" y1="406.64" x2="750.86" y2="406.64"/>
        <line class="cls-2" x1="250.86" y1="406.64" x2="250.86" y2="397.03"/>
        <line class="cls-2" x1="272.49" y1="397.03" x2="272.49" y2="406.64"/>
        <line class="cls-2" x1="729.23" y1="397.03" x2="729.23" y2="406.64"/>
        <line class="cls-2" x1="750.86" y1="397.03" x2="750.86" y2="406.64"/>
        <line class="cls-2" x1="284.51" y1="502.8" x2="284.51" y2="502.8"/>
        <line class="cls-2" x1="717.21" y1="502.8" x2="717.21" y2="502.8"/>
        <line class="cls-2" x1="717.21" y1="406.64" x2="717.21" y2="406.64"/>
        <line class="cls-2" x1="284.51" y1="406.64" x2="284.51" y2="406.64"/>
        <line class="cls-2" x1="729.23" y1="406.64" x2="272.49" y2="406.64"/>
        <line class="cls-2" x1="272.49" y1="406.64" x2="272.49" y2="389.82"/>
        <line class="cls-2" x1="272.49" y1="389.82" x2="729.23" y2="389.82"/>
        <line class="cls-2" x1="729.23" y1="389.82" x2="729.23" y2="406.64"/>
        <line class="cls-2" x1="695.57" y1="406.64" x2="705.19" y2="406.64"/>
        <line class="cls-2" x1="705.19" y1="406.64" x2="705.19" y2="425.87"/>
        <line class="cls-2" x1="647.49" y1="425.87" x2="647.49" y2="416.26"/>
        <line class="cls-2" x1="647.49" y1="416.26" x2="695.57" y2="416.26"/>
        <line class="cls-2" x1="695.57" y1="416.26" x2="695.57" y2="406.64"/>
        <line class="cls-2" x1="705.19" y1="425.87" x2="647.49" y2="425.87"/>
        <line class="cls-2" x1="705.19" y1="370.59" x2="705.19" y2="389.82"/>
        <line class="cls-2" x1="705.19" y1="389.82" x2="695.57" y2="389.82"/>
        <line class="cls-2" x1="647.49" y1="380.2" x2="647.49" y2="370.59"/>
        <line class="cls-2" x1="647.49" y1="370.59" x2="705.19" y2="370.59"/>
        <line class="cls-2" x1="695.57" y1="389.82" x2="695.57" y2="380.2"/>
        <line class="cls-2" x1="695.57" y1="380.2" x2="647.49" y2="380.2"/>
        <line class="cls-2" x1="705.19" y1="406.64" x2="705.19" y2="406.64"/>
        <line class="cls-2" x1="695.57" y1="406.64" x2="695.57" y2="406.64"/>
        <line class="cls-2" x1="695.57" y1="416.26" x2="695.57" y2="416.26"/>
        <line class="cls-2" x1="647.49" y1="416.26" x2="647.49" y2="416.26"/>
        <line class="cls-2" x1="647.49" y1="425.87" x2="647.49" y2="425.87"/>
        <line class="cls-2" x1="705.19" y1="425.87" x2="705.19" y2="425.87"/>
        <line class="cls-2" x1="705.19" y1="389.82" x2="705.19" y2="389.82"/>
        <line class="cls-2" x1="705.19" y1="370.59" x2="705.19" y2="370.59"/>
        <line class="cls-2" x1="647.49" y1="370.59" x2="647.49" y2="370.59"/>
        <line class="cls-2" x1="647.49" y1="380.2" x2="647.49" y2="380.2"/>
        <line class="cls-2" x1="695.57" y1="380.2" x2="695.57" y2="380.2"/>
        <line class="cls-2" x1="695.57" y1="389.82" x2="695.57" y2="389.82"/>
        <line class="cls-2" x1="717.21" y1="512.41" x2="717.21" y2="512.41"/>
        <line class="cls-2" x1="284.51" y1="512.41" x2="284.51" y2="512.41"/>
        <line class="cls-2" x1="729.23" y1="397.03" x2="729.23" y2="397.03"/>
        <line class="cls-2" x1="272.49" y1="397.03" x2="272.49" y2="397.03"/>
        <line class="cls-2" x1="729.23" y1="406.64" x2="729.23" y2="406.64"/>
        <line class="cls-2" x1="272.49" y1="406.64" x2="272.49" y2="406.64"/>
        <line class="cls-2" x1="260.48" y1="406.64" x2="260.48" y2="406.64"/>
        <line class="cls-2" x1="741.24" y1="406.64" x2="741.24" y2="406.64"/>
        <line class="cls-2" x1="260.48" y1="502.8" x2="260.48" y2="502.8"/>
        <line class="cls-2" x1="741.24" y1="502.8" x2="741.24" y2="502.8"/>
        <line class="cls-2" x1="729.23" y1="389.82" x2="729.23" y2="389.82"/>
        <line class="cls-2" x1="272.49" y1="389.82" x2="272.49" y2="389.82"/>
        <line class="cls-2" x1="250.86" y1="502.8" x2="250.86" y2="502.8"/>
        <line class="cls-2" x1="750.86" y1="502.8" x2="750.86" y2="502.8"/>
        <line class="cls-2" x1="250.86" y1="512.41" x2="250.86" y2="512.41"/>
        <line class="cls-2" x1="750.86" y1="512.41" x2="750.86" y2="512.41"/>
        <line class="cls-2" x1="250.86" y1="397.03" x2="250.86" y2="397.03"/>
        <line class="cls-2" x1="750.86" y1="397.03" x2="750.86" y2="397.03"/>
        <line class="cls-2" x1="250.86" y1="406.64" x2="250.86" y2="406.64"/>
        <line class="cls-2" x1="750.86" y1="406.64" x2="750.86" y2="406.64"/>
        <line class="cls-6" x1="750.86" y1="370.59" x2="750.82" y2="364.04"/>
        <line class="cls-6" x1="750.82" y1="364.04" x2="750.69" y2="357.5"/>
        <line class="cls-6" x1="750.69" y1="357.5" x2="750.47" y2="350.96"/>
        <line class="cls-6" x1="750.47" y1="350.96" x2="750.17" y2="344.42"/>
        <line class="cls-6" x1="750.17" y1="344.42" x2="749.79" y2="337.88"/>
        <line class="cls-6" x1="749.79" y1="337.88" x2="749.32" y2="331.36"/>
        <line class="cls-6" x1="749.32" y1="331.36" x2="748.76" y2="324.84"/>
        <line class="cls-6" x1="748.76" y1="324.84" x2="748.12" y2="318.32"/>
        <line class="cls-6" x1="748.12" y1="318.32" x2="747.39" y2="311.82"/>
        <line class="cls-6" x1="747.39" y1="311.82" x2="746.58" y2="305.32"/>
        <line class="cls-6" x1="746.58" y1="305.32" x2="745.69" y2="298.84"/>
        <line class="cls-6" x1="745.69" y1="298.84" x2="744.7" y2="292.37"/>
        <line class="cls-6" x1="744.7" y1="292.37" x2="743.64" y2="285.91"/>
        <line class="cls-6" x1="743.64" y1="285.91" x2="742.49" y2="279.47"/>
        <line class="cls-6" x1="742.49" y1="279.47" x2="741.25" y2="273.04"/>
        <line class="cls-6" x1="741.25" y1="273.04" x2="739.93" y2="266.63"/>
        <line class="cls-6" x1="739.93" y1="266.63" x2="738.53" y2="260.24"/>
        <line class="cls-6" x1="738.53" y1="260.24" x2="737.04" y2="253.86"/>
        <line class="cls-6" x1="737.04" y1="253.86" x2="735.48" y2="247.51"/>
        <line class="cls-6" x1="735.48" y1="247.51" x2="733.82" y2="241.18"/>
        <line class="cls-6" x1="250.86" y1="370.59" x2="733.82" y2="241.18"/>
        <line class="cls-2" x1="284.51" y1="512.41" x2="717.21" y2="512.41"/>
        <line class="cls-2" x1="729.23" y1="397.03" x2="272.49" y2="397.03"/>
        <line class="cls-2" x1="260.48" y1="406.64" x2="741.24" y2="406.64"/>
        <line class="cls-2" x1="741.24" y1="502.8" x2="260.48" y2="502.8"/>
        <line class="cls-2" x1="250.86" y1="502.8" x2="750.86" y2="502.8"/>
        <line class="cls-2" x1="750.86" y1="512.41" x2="250.86" y2="512.41"/>
        <line class="cls-2" x1="250.86" y1="397.03" x2="750.86" y2="397.03"/>
        <line class="cls-2" x1="750.86" y1="406.64" x2="250.86" y2="406.64"/>
      </g>
    </g>
  </g>
  <g id="title-block">
    <line class="cls-1" x1=".86" y1="882.5" x2="1000.86" y2="882.5"/>
    <rect class="cls-11" x=".86" y="882.5" width="1000" height="118"/>
    <rect class="cls-8" x="15.86" y="937.45" width="22" height="22"/>
    <rect class="cls-9" x="104.06" y="937.45" width="22" height="22"/>
  </g>
  <g>
    <rect class="cls-5" x="44.56" y="939.34" width="59.5" height="20.11"/>
    <path d="M45.87,946.52h4.75c1.07,0,1.89.08,2.45.25.76.22,1.4.62,1.94,1.19s.95,1.26,1.23,2.09c.28.82.42,1.84.42,3.05,0,1.06-.13,1.97-.4,2.74-.32.94-.78,1.7-1.38,2.28-.45.44-1.06.78-1.83,1.03-.57.18-1.34.27-2.3.27h-4.9v-12.88ZM48.47,948.7v8.53h1.94c.73,0,1.25-.04,1.57-.12.42-.11.77-.28,1.05-.54s.51-.67.68-1.24c.18-.58.26-1.36.26-2.36s-.09-1.76-.26-2.29-.42-.95-.74-1.25-.72-.5-1.2-.61c-.36-.08-1.08-.12-2.14-.12h-1.17Z"/>
    <path d="M58.28,954.6c0-.82.2-1.61.61-2.38s.98-1.35,1.72-1.76,1.57-.61,2.48-.61c1.41,0,2.57.46,3.47,1.38.9.92,1.35,2.08,1.35,3.48s-.46,2.58-1.37,3.51-2.06,1.39-3.44,1.39c-.86,0-1.67-.19-2.45-.58s-1.37-.95-1.77-1.7c-.4-.75-.61-1.66-.61-2.73ZM60.82,954.73c0,.93.22,1.63.66,2.13s.98.74,1.63.74,1.19-.25,1.62-.74.65-1.21.65-2.14-.22-1.62-.65-2.11-.98-.74-1.62-.74-1.19.25-1.63.74-.66,1.2-.66,2.13Z"/>
    <path d="M69.28,954.6c0-.82.2-1.61.61-2.38s.98-1.35,1.72-1.76,1.57-.61,2.48-.61c1.41,0,2.57.46,3.47,1.38.9.92,1.35,2.08,1.35,3.48s-.46,2.58-1.37,3.51-2.06,1.39-3.44,1.39c-.86,0-1.67-.19-2.45-.58s-1.37-.95-1.77-1.7c-.4-.75-.61-1.66-.61-2.73ZM71.81,954.73c0,.93.22,1.63.66,2.13s.98.74,1.63.74,1.19-.25,1.62-.74.65-1.21.65-2.14-.22-1.62-.65-2.11-.98-.74-1.62-.74-1.19.25-1.63.74-.66,1.2-.66,2.13Z"/>
    <path d="M83.21,959.4h-2.47v-9.33h2.29v1.33c.39-.63.75-1.04,1.06-1.24s.67-.3,1.07-.3c.56,0,1.1.16,1.63.47l-.76,2.15c-.42-.27-.8-.4-1.16-.4s-.64.1-.88.29c-.24.19-.43.54-.57,1.03s-.21,1.54-.21,3.13v2.88Z"/>
  </g>
  <g>
    <rect class="cls-5" x="131.96" y="938.4" width="52.59" height="20.11"/>
    <path d="M135.1,958.46l-3.08-12.88h2.66l1.94,8.85,2.36-8.85h3.09l2.26,9,1.98-9h2.62l-3.13,12.88h-2.76l-2.57-9.63-2.56,9.63h-2.82Z"/>
    <path d="M151.42,951.97l-2.24-.4c.25-.9.69-1.57,1.3-2s1.53-.65,2.74-.65c1.1,0,1.92.13,2.46.39.54.26.92.59,1.14.99s.33,1.14.33,2.21l-.03,2.88c0,.82.04,1.43.12,1.82s.23.81.44,1.25h-2.44c-.06-.16-.14-.41-.24-.73-.04-.15-.07-.24-.09-.29-.42.41-.87.72-1.35.92s-.99.31-1.54.31c-.96,0-1.72-.26-2.27-.78s-.83-1.18-.83-1.98c0-.53.13-1,.38-1.41.25-.41.6-.73,1.06-.95.45-.22,1.11-.41,1.96-.58,1.15-.22,1.95-.42,2.4-.61v-.25c0-.47-.12-.81-.35-1.01-.23-.2-.68-.3-1.33-.3-.44,0-.78.09-1.03.26-.25.17-.45.48-.6.91ZM154.73,953.97c-.32.11-.82.23-1.5.38s-1.13.29-1.34.43c-.32.23-.48.52-.48.87s.13.64.39.9.59.38.98.38c.45,0,.87-.15,1.27-.44.3-.22.5-.5.59-.82.06-.21.1-.61.1-1.2v-.49Z"/>
    <path d="M159.59,958.46v-12.88h2.47v12.88h-2.47Z"/>
    <path d="M164.59,958.46v-12.88h2.47v12.88h-2.47Z"/>
  </g>
  <g>
    <rect class="cls-5" x="15.86" y="903.46" width="146.32" height="22.45"/>
    <path d="M25.6,914.33v-2.89h7.48v6.84c-.73.7-1.78,1.32-3.16,1.86s-2.78.8-4.19.8c-1.8,0-3.36-.38-4.7-1.13s-2.34-1.83-3.01-3.23-1.01-2.93-1.01-4.58c0-1.79.38-3.38,1.12-4.77s1.85-2.46,3.29-3.2c1.1-.57,2.47-.86,4.11-.86,2.13,0,3.8.45,5,1.34s1.97,2.13,2.31,3.71l-3.45.64c-.24-.84-.7-1.51-1.37-2s-1.5-.73-2.5-.73c-1.52,0-2.72.48-3.62,1.44s-1.34,2.39-1.34,4.28c0,2.04.45,3.57,1.36,4.59s2.09,1.53,3.56,1.53c.73,0,1.46-.14,2.19-.43s1.36-.63,1.88-1.04v-2.18h-3.97Z"/>
    <path d="M39.41,920.65h-3.29v-12.45h3.06v1.77c.52-.84.99-1.39,1.41-1.65s.89-.4,1.42-.4c.75,0,1.47.21,2.17.62l-1.02,2.87c-.55-.36-1.07-.54-1.55-.54s-.85.13-1.17.38-.57.71-.76,1.38-.28,2.05-.28,4.17v3.84Z"/>
    <path d="M44.83,914.25c0-1.09.27-2.15.81-3.18s1.3-1.8,2.29-2.34,2.09-.81,3.31-.81c1.88,0,3.43.61,4.63,1.83s1.8,2.77,1.8,4.63-.61,3.44-1.82,4.68-2.74,1.86-4.59,1.86c-1.14,0-2.23-.26-3.26-.77s-1.82-1.27-2.36-2.27-.81-2.21-.81-3.64ZM48.21,914.42c0,1.23.29,2.18.88,2.84s1.31.98,2.17.98,1.58-.33,2.16-.98.87-1.61.87-2.86-.29-2.16-.87-2.81-1.3-.98-2.16-.98-1.58.33-2.17.98-.88,1.6-.88,2.84Z"/>
    <path d="M68.44,920.65v-1.86c-.45.66-1.05,1.19-1.79,1.57s-1.52.57-2.34.57-1.59-.18-2.25-.55-1.14-.88-1.44-1.55-.45-1.58-.45-2.75v-7.88h3.29v5.72c0,1.75.06,2.82.18,3.22s.34.71.66.94.73.35,1.22.35c.56,0,1.07-.15,1.51-.46s.75-.69.91-1.15.25-1.58.25-3.36v-5.25h3.29v12.45h-3.06Z"/>
    <path d="M86.23,920.65h-3.29v-6.35c0-1.34-.07-2.21-.21-2.61s-.37-.7-.69-.92-.7-.33-1.14-.33c-.57,0-1.08.16-1.54.47s-.76.73-.93,1.24-.25,1.47-.25,2.86v5.64h-3.29v-12.45h3.06v1.83c1.09-1.41,2.45-2.11,4.1-2.11.73,0,1.39.13,1.99.39s1.06.6,1.37,1,.52.87.64,1.38.18,1.25.18,2.21v7.73Z"/>
    <path d="M100.99,920.65h-3.06v-1.83c-.51.71-1.11,1.24-1.8,1.59s-1.39.52-2.09.52c-1.43,0-2.65-.58-3.67-1.73s-1.53-2.76-1.53-4.82.5-3.71,1.49-4.81,2.25-1.65,3.76-1.65c1.39,0,2.59.58,3.61,1.73v-6.19h3.29v17.18ZM92.2,914.15c0,1.33.18,2.29.55,2.88.53.86,1.27,1.29,2.23,1.29.76,0,1.4-.32,1.93-.97s.8-1.61.8-2.89c0-1.43-.26-2.46-.77-3.09s-1.18-.94-1.98-.94-1.44.31-1.96.93-.79,1.55-.79,2.78Z"/>
    <path d="M110.93,920.65v-17.18h5.57c2.11,0,3.48.09,4.12.26.98.26,1.81.82,2.47,1.68s1,1.98,1,3.35c0,1.05-.19,1.94-.57,2.66s-.87,1.28-1.46,1.69-1.19.68-1.8.81c-.83.16-2.03.25-3.6.25h-2.26v6.48h-3.47ZM114.39,906.37v4.88h1.9c1.37,0,2.28-.09,2.74-.27s.82-.46,1.08-.84.39-.83.39-1.34c0-.62-.18-1.14-.55-1.55s-.83-.66-1.39-.76c-.41-.08-1.25-.12-2.5-.12h-1.68Z"/>
    <path d="M126.91,920.65v-17.18h3.29v17.18h-3.29Z"/>
    <path d="M136.04,912l-2.99-.54c.34-1.2.91-2.09,1.73-2.67s2.04-.87,3.66-.87c1.47,0,2.56.17,3.28.52s1.22.79,1.52,1.32.44,1.52.44,2.95l-.04,3.84c0,1.09.05,1.9.16,2.42s.3,1.08.59,1.67h-3.26c-.09-.22-.19-.54-.32-.97-.05-.2-.09-.32-.12-.39-.56.55-1.16.96-1.8,1.23s-1.32.41-2.05.41c-1.28,0-2.29-.35-3.03-1.04s-1.11-1.57-1.11-2.64c0-.7.17-1.33.5-1.88s.81-.97,1.41-1.27,1.48-.55,2.62-.77c1.54-.29,2.61-.56,3.2-.81v-.33c0-.63-.16-1.08-.47-1.35s-.9-.4-1.77-.4c-.59,0-1.04.12-1.37.35s-.59.63-.8,1.21ZM140.44,914.67c-.42.14-1.09.31-2,.5s-1.51.39-1.79.57c-.43.3-.64.69-.64,1.16s.17.86.52,1.2.78.5,1.31.5c.59,0,1.16-.2,1.7-.59.4-.3.66-.66.79-1.09.09-.28.13-.82.13-1.61v-.66Z"/>
    <path d="M158.25,920.65h-3.29v-6.35c0-1.34-.07-2.21-.21-2.61s-.37-.7-.69-.92-.7-.33-1.14-.33c-.57,0-1.08.16-1.54.47s-.76.73-.93,1.24-.25,1.47-.25,2.86v5.64h-3.29v-12.45h3.06v1.83c1.09-1.41,2.45-2.11,4.1-2.11.73,0,1.39.13,1.99.39s1.06.6,1.37,1,.52.87.64,1.38.18,1.25.18,2.21v7.73Z"/>
  </g>
</svg>