<?xml version="1.0" encoding="UTF-8"?>
<svg xmlns="http://www.w3.org/2000/svg" viewBox="0 0 21.85 50.04">
  <defs>
    <style>
      .cls-1 {
        fill: none;
        stroke: #000;
        stroke-miterlimit: 10;
      }

      .cls-2 {
        fill: #5294ff;
      }
    </style>
  </defs>
  <g id="Layer_3" data-name="Layer 3">
    <rect class="cls-2" x="1.12" y="10" width="19.67" height="14.69"/>
    <rect class="cls-2" x=".93" y="25" width="19.67" height="14.69"/>
  </g>
  <g id="Layer_1" data-name="Layer 1">
    <line class="cls-1" x1=".99" y1="50.04" x2=".99" y2="3.98"/>
    <line class="cls-1" x1="20.86" y1="50.04" x2="20.86" y2=".04"/>
    <line class="cls-1" x1=".99" y1="10" x2="20.86" y2="10"/>
    <line class="cls-1" x1="1.12" y1="40" x2="20.99" y2="40"/>
    <line class="cls-1" x1=".93" y1="24.69" x2="20.8" y2="24.69"/>
    <path d="M15.43,13.17v8.38h-1.68v-5.45l-2.24,5.45h-1.27l-2.26-5.45v5.45h-1.68v-8.38h1.91l2.66,6.23,2.66-6.23h1.9Z"/>
    <path d="M10.18,29.29v2.1h2.82v1.33h-2.82v2.22h3.18v1.37h-4.86v-8.39h4.86v1.37h-3.18Z"/>
  </g>
  <g id="Layer_2" data-name="Layer 2">
    <polygon points="21.85 0 20.87 0 20.85 0 19.87 0 19.87 3 20.85 4.96 20.85 5 20.86 4.98 20.87 5 20.87 4.96 21.85 3 21.85 0"/>
    <polygon points="1.98 0 1 0 .98 0 0 0 0 3 .98 4.96 .98 5 .99 4.98 1 5 1 4.96 1.98 3 1.98 0"/>
    <polygon points="1.98 50.04 1 50.04 .98 50.04 0 50.04 0 47.04 .98 45.07 .98 45.04 .99 45.05 1 45.04 1 45.07 1.98 47.04 1.98 50.04"/>
    <polygon points="21.85 50.04 20.87 50.04 20.85 50.04 19.87 50.04 19.87 47.04 20.85 45.07 20.85 45.04 20.86 45.05 20.87 45.04 20.87 45.07 21.85 47.04 21.85 50.04"/>
  </g>
</svg>